<svg xmlns="http://www.w3.org/2000/svg" viewBox="0 0 519 497" width="519" height="497">
<g transform="translate(0.000000,497.000000) scale(1.000000,-1.000000)"
fill="#9B8BBE" stroke="none">
<path d="M297 373 c11 -8 22 -21 28 -33 9 -20 9 -44 1 -64 -9 -20 -18 -29 -52
-50 -4 -3 -9 -6 -10 -7 l-2 -2 -3 3 c-6 5 -12 8 -29 17 -21 10 -30 17 -36 24
-5 7 -9 14 -7 15 0 0 4 2 9 3 22 6 38 18 44 36 4 8 3 26 0 34 -3 7 -10 16 -17
20 -5 3 -13 5 -20 5 -8 0 -26 -7 -37 -15 -9 -5 -26 -22 -33 -31 -10 -15 -20
-37 -23 -56 -2 -10 -2 -38 0 -48 10 -54 53 -97 111 -109 11 -2 30 -4 36 -3 l3
1 0 7 c-3 26 -18 52 -43 73 -5 4 -17 13 -26 19 -27 18 -41 33 -50 51 -5 11 -7
19 -8 32 0 10 1 10 3 0 1 -8 6 -20 11 -27 8 -12 23 -26 39 -36 25 -15 40 -26
53 -39 l8 -7 8 8 c10 11 20 19 36 28 26 15 30 17 36 22 14 11 22 22 27 36 3
10 4 7 1 -4 -5 -21 -21 -39 -47 -55 -21 -12 -31 -20 -39 -28 -5 -5 -10 -11
-12 -13 l-2 -5 4 -5 c9 -14 15 -30 17 -48 0 -9 0 -9 16 -3 49 16 84 53 94 99
2 11 3 36 1 49 -2 12 -7 28 -13 39 -15 31 -43 56 -74 68 -8 3 -8 3 -3 -1z"/>
</g>
  <circle cx="262.5" cy="230.0" r="25.2" fill="#E8A68A" />
</svg>
